<svg xmlns="http://www.w3.org/2000/svg" viewBox="0 0 64 64" role="img" aria-label="HarerEats icon">
  <defs>
    <linearGradient id="heGrad" x1="0" y1="0" x2="1" y2="1">
      <stop offset="0%" stop-color="#fb923c"/>
      <stop offset="58%" stop-color="#ef4444"/>
      <stop offset="100%" stop-color="#111827"/>
    </linearGradient>
  </defs>
  <rect x="4" y="4" width="56" height="56" rx="16" fill="url(#heGrad)"/>
  <path fill="#ffffff" d="M22 14a2 2 0 0 1 2 2v20a6 6 0 1 1-12 0V16a2 2 0 1 1 4 0v9h2v-9a2 2 0 0 1 2-2Zm26 0c5.1 0 9 3.9 9 9v9c0 5.1-3.9 9-9 9v16a2 2 0 1 1-4 0V16a2 2 0 0 1 2-2Z"/>
</svg>
